<svg version="1.1" preserveAspectRatio="none" xmlns="http://www.w3.org/2000/svg" width="500" height="500" viewBox="0 0 500 500"><rect width="100%" height="100%" fill="#070707" fill-opacity="1"/><svg viewBox="64.618 -60.4878 482.43 345.936" width="333" height="238.78425471052793" x="83.5px" y="130.6079px" xmlns="http://www.w3.org/2000/svg" xmlns:xlink="http://www.w3.org/1999/xlink" preserveAspectRatio="none"><defs></defs><style>.companyName {fill:#F7DC5F;fill-opacity:1;}.icon1 {fill:#F7DC5F;fill-opacity:1;}.icon2 {fill:#8C7848;fill-opacity:1;}.icon3 {fill:#534538;fill-opacity:1;}.icon3-str {stroke:#534538;stroke-opacity:1;}</style><g opacity="1" transform="rotate(0 64.618 261.4482)">
<svg width="482.43" height="24" x="64.618" y="261.4482" version="1.1" preserveAspectRatio="none" viewBox="1.2 -31.2 635.1999999999999 31.6">
  <g transform="matrix(1 0 0 1 0 0)" class="companyName"><path id="id-D6z1nYkh21" d="M23.08-7.48L23.24-7.48L32.48-30.80L44.16-30.80L44.16-29.20Q42.84-29.20 42.02-28.94Q41.20-28.68 40.76-28Q40.32-27.32 40.18-26.14Q40.04-24.96 40.04-23.16L40.04-23.16L40.04-7.64Q40.04-5.64 40.20-4.48Q40.36-3.32 40.84-2.68Q41.32-2.04 42.22-1.84Q43.12-1.64 44.60-1.60L44.60-1.60L44.60 0L29.56 0L29.56-1.60Q31.04-1.64 31.94-1.86Q32.84-2.08 33.34-2.68Q33.84-3.28 34-4.38Q34.16-5.48 34.16-7.36L34.16-7.36L34.16-26.08L33.96-26.08L23.20 0.40L20.24 0.40L9.12-26.08L8.96-26.08L8.96-7.64Q8.96-5.64 9.12-4.48Q9.28-3.32 9.76-2.68Q10.24-2.04 11.14-1.84Q12.04-1.64 13.52-1.60L13.52-1.60L13.52 0L1.20 0L1.20-1.60Q2.68-1.64 3.60-1.86Q4.52-2.08 5.02-2.68Q5.52-3.28 5.68-4.38Q5.84-5.48 5.84-7.36L5.84-7.36L5.84-23.44Q5.84-25.12 5.68-26.24Q5.52-27.36 5.08-28.02Q4.64-28.68 3.82-28.94Q3-29.20 1.64-29.20L1.64-29.20L1.64-30.80L13.76-30.80L23.08-7.48Z M78.08-20.88L78.08-12.40Q78.08-9 77.34-6.58Q76.60-4.16 75.04-2.60Q73.48-1.04 71.02-0.32Q68.56 0.40 65.12 0.40L65.12 0.40Q58.68 0.40 55.70-2.30Q52.72-5 52.72-10.92L52.72-10.92L52.72-21.88Q52.72-23.44 52.68-24.50Q52.64-25.56 52.56-26.28Q52.48-27 52.34-27.46Q52.20-27.92 52.00-28.24L52.00-28.24Q51.64-28.80 50.96-29Q50.28-29.20 48.88-29.20L48.88-29.20L48.88-30.80L63.24-30.80L63.24-29.20Q61.56-29.20 60.76-29.02Q59.96-28.84 59.52-28.32L59.52-28.32Q59.24-28 59.06-27.54Q58.88-27.08 58.78-26.34Q58.68-25.60 58.64-24.52Q58.60-23.44 58.60-21.88L58.60-21.88L58.60-11.40Q58.60-6.84 60.54-4.66Q62.48-2.48 66.52-2.48L66.52-2.48Q74.76-2.48 74.76-11.64L74.76-11.64L74.76-20.88Q74.76-22.56 74.70-23.76Q74.64-24.96 74.50-25.80Q74.36-26.64 74.14-27.20Q73.92-27.76 73.60-28.12L73.60-28.12Q73.04-28.68 72.16-28.94Q71.28-29.20 69.72-29.20L69.72-29.20L69.72-30.80L82.68-30.80L82.68-29.20Q81.20-29.20 80.40-28.98Q79.60-28.76 79.16-28.20L79.16-28.20Q78.84-27.84 78.64-27.26Q78.44-26.68 78.32-25.82Q78.20-24.96 78.14-23.76Q78.08-22.56 78.08-20.88L78.08-20.88Z M114.60-9.08L113.96 0L86.40 0L86.40-1.60Q87.72-1.64 88.56-1.84Q89.40-2.04 89.84-2.52Q90.28-3 90.44-3.88Q90.60-4.76 90.60-6.16L90.60-6.16L90.60-24.64Q90.60-26.04 90.46-26.90Q90.32-27.76 89.92-28.26Q89.52-28.76 88.78-28.94Q88.04-29.12 86.84-29.20L86.84-29.20L86.84-30.80L100.64-30.80L100.64-29.20Q99.28-29.16 98.46-28.96Q97.64-28.76 97.20-28.24Q96.76-27.72 96.62-26.80Q96.48-25.88 96.48-24.36L96.48-24.36L96.48-7.60Q96.48-5.92 96.82-4.86Q97.16-3.80 98-3.22Q98.84-2.64 100.24-2.42Q101.64-2.20 103.72-2.20L103.72-2.20Q106.04-2.20 107.60-2.48Q109.16-2.76 110.22-3.54Q111.28-4.32 111.92-5.64Q112.56-6.96 113-9.08L113-9.08L114.60-9.08Z M145.08-30.80L145.48-22L143.76-22Q143.64-23.96 143.18-25.26Q142.72-26.56 141.88-27.34Q141.04-28.12 139.84-28.42Q138.64-28.72 137.04-28.72L137.04-28.72Q135.48-28.72 134.54-28.66Q133.60-28.60 133.10-28.46Q132.60-28.32 132.44-28.08Q132.28-27.84 132.28-27.48L132.28-27.48L132.28-6.52Q132.28-5.24 132.46-4.32Q132.64-3.40 133.20-2.82Q133.76-2.24 134.84-1.94Q135.92-1.64 137.68-1.60L137.68-1.60L137.68 0L120.92 0L120.92-1.60Q122.72-1.64 123.80-1.94Q124.88-2.24 125.46-2.82Q126.04-3.40 126.22-4.32Q126.40-5.24 126.40-6.52L126.40-6.52L126.40-27.48Q126.40-27.84 126.26-28.08Q126.12-28.32 125.68-28.46Q125.24-28.60 124.42-28.66Q123.60-28.72 122.28-28.72L122.28-28.72Q120.84-28.72 119.52-28.58Q118.20-28.44 117.20-27.78Q116.20-27.12 115.58-25.78Q114.96-24.44 114.92-22L114.92-22L113.36-22L113.76-30.80L145.08-30.80Z M163.68-1.60L163.68 0L149.40 0L149.40-1.60Q150.76-1.64 151.58-1.86Q152.40-2.08 152.84-2.68Q153.28-3.28 153.44-4.38Q153.60-5.48 153.60-7.36L153.60-7.36L153.60-23.44Q153.60-25.12 153.46-26.22Q153.32-27.32 152.92-27.96Q152.52-28.60 151.78-28.86Q151.04-29.12 149.80-29.20L149.80-29.20L149.80-30.80L163.28-30.80L163.28-29.20Q162.04-29.12 161.30-28.86Q160.56-28.60 160.16-27.96Q159.76-27.32 159.62-26.22Q159.48-25.12 159.48-23.44L159.48-23.44L159.48-7.36Q159.48-5.48 159.62-4.38Q159.76-3.28 160.22-2.68Q160.68-2.08 161.50-1.86Q162.32-1.64 163.68-1.60L163.68-1.60Z M178.24-24.40L184.64-6.88L189.84-20.20Q190.60-22.16 191.06-23.40Q191.52-24.64 191.76-25.44Q192.00-26.24 192.08-26.72Q192.16-27.20 192.16-27.64L192.16-27.64Q192.16-28.60 191.44-28.90Q190.72-29.20 188.56-29.20L188.56-29.20L188.56-30.80L199.92-30.80L199.92-29.20Q196.60-29.20 195.32-25.96L195.32-25.96L184.80 0.40L181.84 0.40L172.28-22.96Q171.48-24.84 170.84-26.04Q170.20-27.24 169.48-27.94Q168.76-28.64 167.90-28.90Q167.04-29.16 165.88-29.16L165.88-29.16L165.88-30.80L181.00-30.80L181.00-29.16Q179.96-29.12 179.26-29.04Q178.56-28.96 178.16-28.78Q177.76-28.60 177.60-28.30Q177.44-28 177.44-27.56L177.44-27.56Q177.44-27 177.64-26.24Q177.84-25.48 178.24-24.40L178.24-24.40Z M212.80-27.20L212.80-17.04Q215.36-17.04 216.92-17.20Q218.48-17.36 219.34-17.86Q220.20-18.36 220.56-19.32Q220.92-20.28 221.12-21.92L221.12-21.92L222.60-21.92L222.60-10.20L221.12-10.20Q220.88-11.80 220.48-12.76Q220.08-13.72 219.20-14.22Q218.32-14.72 216.82-14.86Q215.32-15 212.80-15L212.80-15L212.80-6.76Q212.80-5.48 213.14-4.60Q213.48-3.72 214.28-3.18Q215.08-2.64 216.40-2.42Q217.72-2.20 219.64-2.20L219.64-2.20Q221.92-2.20 223.50-2.52Q225.08-2.84 226.12-3.64Q227.16-4.44 227.80-5.78Q228.44-7.12 228.88-9.16L228.88-9.16L230.48-9.16L229.84 0L202.72 0L202.72-1.60Q204.04-1.64 204.88-1.84Q205.72-2.04 206.16-2.52Q206.60-3 206.76-3.88Q206.92-4.76 206.92-6.16L206.92-6.16L206.92-24.64Q206.92-26.04 206.78-26.90Q206.64-27.76 206.24-28.26Q205.84-28.76 205.10-28.94Q204.36-29.12 203.16-29.20L203.16-29.20L203.16-30.80L228.44-30.80L228.72-22.96L227-22.96Q226.76-24.64 226.24-25.74Q225.72-26.84 224.80-27.50Q223.88-28.16 222.42-28.42Q220.96-28.68 218.84-28.68L218.84-28.68L214.32-28.68Q213.28-28.68 213.04-28.42Q212.80-28.16 212.80-27.20L212.80-27.20Z M261.68-23.08L261.68-23.08Q261.68-19.76 259.76-17.52Q257.84-15.28 253.64-14.52L253.64-14.52L262.92-3.88Q263.88-2.76 265.20-2.18Q266.52-1.60 267.88-1.60L267.88-1.60L267.88 0L258.40 0L248.48-12.16Q247.48-13.36 246.74-13.78Q246-14.20 245.36-14.20L245.36-14.20L245.36-6.36Q245.36-4.88 245.56-3.94Q245.76-3 246.36-2.48Q246.96-1.96 248.10-1.78Q249.24-1.60 251.16-1.60L251.16-1.60L251.16 0L235.28 0L235.28-1.60Q236.60-1.60 237.42-1.78Q238.24-1.96 238.70-2.46Q239.16-2.96 239.32-3.86Q239.48-4.76 239.48-6.16L239.48-6.16L239.48-24.64Q239.48-26.04 239.36-26.90Q239.24-27.76 238.84-28.26Q238.44-28.76 237.70-28.94Q236.96-29.12 235.72-29.20L235.72-29.20L235.72-30.80L249.56-30.80Q255.36-30.80 258.52-28.76Q261.68-26.72 261.68-23.08ZM245.36-27.88L245.36-16.60L247.96-16.60Q251.72-16.60 253.58-18.06Q255.44-19.52 255.44-22.88L255.44-22.88Q255.44-25.44 253.88-27Q252.32-28.56 249.56-28.56L249.56-28.56L246.08-28.56Q245.36-28.56 245.36-27.88L245.36-27.88Z M271.24 0L270.64-10.20L272.20-10.20Q272.76-6.40 275.24-4.22Q277.72-2.04 281.36-2.04L281.36-2.04Q282.84-2.04 284.08-2.40Q285.32-2.76 286.20-3.42Q287.08-4.08 287.56-4.98Q288.04-5.88 288.04-7L288.04-7Q288.04-7.96 287.74-8.66Q287.44-9.36 286.60-10.02Q285.76-10.68 284.30-11.36Q282.84-12.04 280.52-12.92L280.52-12.92Q275.84-14.72 273.60-17.10Q271.36-19.48 271.36-22.72L271.36-22.72Q271.36-24.60 272.08-26.16Q272.80-27.72 274.10-28.84Q275.40-29.96 277.22-30.58Q279.04-31.20 281.24-31.20L281.24-31.20Q283.28-31.20 285.08-30.56Q286.88-29.92 288.64-28.64L288.64-28.64L289.36-30.64L290.32-30.64L290.76-22L289.20-22Q288.24-25.28 286.20-27.02Q284.16-28.76 281.48-28.76L281.48-28.76Q279-28.76 277.46-27.54Q275.92-26.32 275.92-24.40L275.92-24.40Q275.92-23.56 276.20-22.90Q276.48-22.24 277.24-21.64Q278-21.04 279.32-20.42Q280.64-19.80 282.72-19.04L282.72-19.04Q285.52-17.96 287.50-16.86Q289.48-15.76 290.74-14.50Q292-13.24 292.60-11.84Q293.20-10.44 293.20-8.76L293.20-8.76Q293.20-6.72 292.32-5.04Q291.44-3.36 289.86-2.16Q288.28-0.96 286.10-0.28Q283.92 0.40 281.28 0.40L281.28 0.40Q278.88 0.40 276.96-0.26Q275.04-0.92 273-2.40L273-2.40L272.20 0L271.24 0Z M308.48-27.20L308.48-17.04Q311.04-17.04 312.60-17.20Q314.16-17.36 315.02-17.86Q315.88-18.36 316.24-19.32Q316.60-20.28 316.80-21.92L316.80-21.92L318.28-21.92L318.28-10.20L316.80-10.20Q316.56-11.80 316.16-12.76Q315.76-13.72 314.88-14.22Q314-14.72 312.50-14.86Q311-15 308.48-15L308.48-15L308.48-6.76Q308.48-5.48 308.82-4.60Q309.16-3.72 309.96-3.18Q310.76-2.64 312.08-2.42Q313.40-2.20 315.32-2.20L315.32-2.20Q317.60-2.20 319.18-2.52Q320.76-2.84 321.80-3.64Q322.84-4.44 323.48-5.78Q324.12-7.12 324.56-9.16L324.56-9.16L326.16-9.16L325.52 0L298.40 0L298.40-1.60Q299.72-1.64 300.56-1.84Q301.40-2.04 301.84-2.52Q302.28-3 302.44-3.88Q302.60-4.76 302.60-6.16L302.60-6.16L302.60-24.64Q302.60-26.04 302.46-26.90Q302.32-27.76 301.92-28.26Q301.52-28.76 300.78-28.94Q300.04-29.12 298.84-29.20L298.84-29.20L298.84-30.80L324.12-30.80L324.40-22.96L322.68-22.96Q322.44-24.64 321.92-25.74Q321.40-26.84 320.48-27.50Q319.56-28.16 318.10-28.42Q316.64-28.68 314.52-28.68L314.52-28.68L310-28.68Q308.96-28.68 308.72-28.42Q308.48-28.16 308.48-27.20L308.48-27.20Z M373.24-30.80L373.64-22L371.92-22Q371.80-23.96 371.34-25.26Q370.88-26.56 370.04-27.34Q369.20-28.12 368.00-28.42Q366.80-28.72 365.20-28.72L365.20-28.72Q363.64-28.72 362.70-28.66Q361.76-28.60 361.26-28.46Q360.76-28.32 360.60-28.08Q360.44-27.84 360.44-27.48L360.44-27.48L360.44-6.52Q360.44-5.24 360.62-4.32Q360.80-3.40 361.36-2.82Q361.92-2.24 363.00-1.94Q364.08-1.64 365.84-1.60L365.84-1.60L365.84 0L349.08 0L349.08-1.60Q350.88-1.64 351.96-1.94Q353.04-2.24 353.62-2.82Q354.20-3.40 354.38-4.32Q354.56-5.24 354.56-6.52L354.56-6.52L354.56-27.48Q354.56-27.84 354.42-28.08Q354.28-28.32 353.84-28.46Q353.40-28.60 352.58-28.66Q351.76-28.72 350.44-28.72L350.44-28.72Q349.00-28.72 347.68-28.58Q346.36-28.44 345.36-27.78Q344.36-27.12 343.74-25.78Q343.12-24.44 343.08-22L343.08-22L341.52-22L341.92-30.80L373.24-30.80Z M403.92-23.08L403.92-23.08Q403.92-19.76 402.00-17.52Q400.08-15.28 395.88-14.52L395.88-14.52L405.16-3.88Q406.12-2.76 407.44-2.18Q408.76-1.60 410.12-1.60L410.12-1.60L410.12 0L400.64 0L390.72-12.16Q389.72-13.36 388.98-13.78Q388.24-14.20 387.60-14.20L387.60-14.20L387.60-6.36Q387.60-4.88 387.80-3.94Q388.00-3 388.60-2.48Q389.20-1.96 390.34-1.78Q391.48-1.60 393.40-1.60L393.40-1.60L393.40 0L377.52 0L377.52-1.60Q378.84-1.60 379.66-1.78Q380.48-1.96 380.94-2.46Q381.40-2.96 381.56-3.86Q381.72-4.76 381.72-6.16L381.72-6.16L381.72-24.64Q381.72-26.04 381.60-26.90Q381.48-27.76 381.08-28.26Q380.68-28.76 379.94-28.94Q379.20-29.12 377.96-29.20L377.96-29.20L377.96-30.80L391.80-30.80Q397.60-30.80 400.76-28.76Q403.92-26.72 403.92-23.08ZM387.60-27.88L387.60-16.60L390.20-16.60Q393.96-16.60 395.82-18.06Q397.68-19.52 397.68-22.88L397.68-22.88Q397.68-25.44 396.12-27Q394.56-28.56 391.80-28.56L391.80-28.56L388.32-28.56Q387.60-28.56 387.60-27.88L387.60-27.88Z M431.68-6.92L430.76-9.32L419.44-9.32Q417.56-5.08 417.56-3.44L417.56-3.44Q417.56-2.24 418.46-1.92Q419.36-1.60 421.16-1.60L421.16-1.60L421.16 0L410.20 0L410.20-1.60Q411.16-1.72 411.86-1.92Q412.56-2.12 413.10-2.48Q413.64-2.84 414.04-3.42Q414.44-4 414.80-4.84L414.80-4.84L425.32-31.20L428.28-31.20L437.84-7.84Q438.68-5.80 439.26-4.64Q439.84-3.48 440.50-2.86Q441.16-2.24 442.02-2Q442.88-1.76 444.24-1.64L444.24-1.64L444.24 0L429.12 0L429.12-1.64Q431.04-1.72 431.88-2.04Q432.72-2.36 432.72-3.32L432.72-3.32Q432.72-3.88 432.44-4.76Q432.16-5.64 431.68-6.92L431.68-6.92ZM425.12-23.84L420.36-11.72L429.88-11.72L425.28-23.84L425.12-23.84Z M452.88-24.40L459.28-6.88L464.48-20.20Q465.24-22.16 465.70-23.40Q466.16-24.64 466.40-25.44Q466.64-26.24 466.72-26.72Q466.80-27.20 466.80-27.64L466.80-27.64Q466.80-28.60 466.08-28.90Q465.36-29.20 463.20-29.20L463.20-29.20L463.20-30.80L474.56-30.80L474.56-29.20Q471.24-29.20 469.96-25.96L469.96-25.96L459.44 0.40L456.48 0.40L446.92-22.96Q446.12-24.84 445.48-26.04Q444.84-27.24 444.12-27.94Q443.40-28.64 442.54-28.90Q441.68-29.16 440.52-29.16L440.52-29.16L440.52-30.80L455.64-30.80L455.64-29.16Q454.60-29.12 453.90-29.04Q453.20-28.96 452.80-28.78Q452.40-28.60 452.24-28.30Q452.08-28 452.08-27.56L452.08-27.56Q452.08-27 452.28-26.24Q452.48-25.48 452.88-24.40L452.88-24.40Z M487.44-27.20L487.44-17.04Q490-17.04 491.56-17.20Q493.12-17.36 493.98-17.86Q494.84-18.36 495.20-19.32Q495.56-20.28 495.76-21.92L495.76-21.92L497.24-21.92L497.24-10.20L495.76-10.20Q495.52-11.80 495.12-12.76Q494.72-13.72 493.84-14.22Q492.96-14.72 491.46-14.86Q489.96-15 487.44-15L487.44-15L487.44-6.76Q487.44-5.48 487.78-4.60Q488.12-3.72 488.92-3.18Q489.72-2.64 491.04-2.42Q492.36-2.20 494.28-2.20L494.28-2.20Q496.56-2.20 498.14-2.52Q499.72-2.84 500.76-3.64Q501.80-4.44 502.44-5.78Q503.08-7.12 503.52-9.16L503.52-9.16L505.12-9.16L504.48 0L477.36 0L477.36-1.60Q478.68-1.64 479.52-1.84Q480.36-2.04 480.80-2.52Q481.24-3 481.40-3.88Q481.56-4.76 481.56-6.16L481.56-6.16L481.56-24.64Q481.56-26.04 481.42-26.90Q481.28-27.76 480.88-28.26Q480.48-28.76 479.74-28.94Q479-29.12 477.80-29.20L477.80-29.20L477.80-30.80L503.08-30.80L503.36-22.96L501.64-22.96Q501.40-24.64 500.88-25.74Q500.36-26.84 499.44-27.50Q498.52-28.16 497.06-28.42Q495.60-28.68 493.48-28.68L493.48-28.68L488.96-28.68Q487.92-28.68 487.68-28.42Q487.44-28.16 487.44-27.20L487.44-27.20Z M538.12-9.08L537.48 0L509.92 0L509.92-1.60Q511.24-1.64 512.08-1.84Q512.92-2.04 513.36-2.52Q513.80-3 513.96-3.88Q514.12-4.76 514.12-6.16L514.12-6.16L514.12-24.64Q514.12-26.04 513.98-26.90Q513.84-27.76 513.44-28.26Q513.04-28.76 512.30-28.94Q511.56-29.12 510.36-29.20L510.36-29.20L510.36-30.80L524.16-30.80L524.16-29.20Q522.80-29.16 521.98-28.96Q521.16-28.76 520.72-28.24Q520.28-27.72 520.14-26.80Q520-25.88 520-24.36L520-24.36L520-7.60Q520-5.92 520.34-4.86Q520.68-3.80 521.52-3.22Q522.36-2.64 523.76-2.42Q525.16-2.20 527.24-2.20L527.24-2.20Q529.56-2.20 531.12-2.48Q532.68-2.76 533.74-3.54Q534.80-4.32 535.44-5.64Q536.08-6.96 536.52-9.08L536.52-9.08L538.12-9.08Z M552.20-27.20L552.20-17.04Q554.76-17.04 556.32-17.20Q557.88-17.36 558.74-17.86Q559.60-18.36 559.96-19.32Q560.32-20.28 560.52-21.92L560.52-21.92L562-21.92L562-10.20L560.52-10.20Q560.28-11.80 559.88-12.76Q559.48-13.72 558.60-14.22Q557.72-14.72 556.22-14.86Q554.72-15 552.20-15L552.20-15L552.20-6.76Q552.20-5.48 552.54-4.60Q552.88-3.72 553.68-3.18Q554.48-2.64 555.80-2.42Q557.12-2.20 559.04-2.20L559.04-2.20Q561.32-2.20 562.90-2.52Q564.48-2.84 565.52-3.64Q566.56-4.44 567.20-5.78Q567.84-7.12 568.28-9.16L568.28-9.16L569.88-9.16L569.24 0L542.12 0L542.12-1.60Q543.44-1.64 544.28-1.84Q545.12-2.04 545.56-2.52Q546-3 546.16-3.88Q546.32-4.76 546.32-6.16L546.32-6.16L546.32-24.64Q546.32-26.04 546.18-26.90Q546.04-27.76 545.64-28.26Q545.24-28.76 544.50-28.94Q543.76-29.12 542.56-29.20L542.56-29.20L542.56-30.80L567.84-30.80L568.12-22.96L566.40-22.96Q566.16-24.64 565.64-25.74Q565.12-26.84 564.20-27.50Q563.28-28.16 561.82-28.42Q560.36-28.68 558.24-28.68L558.24-28.68L553.72-28.68Q552.68-28.68 552.44-28.42Q552.20-28.16 552.20-27.20L552.20-27.20Z M601.08-23.08L601.08-23.08Q601.08-19.76 599.16-17.52Q597.24-15.28 593.04-14.52L593.04-14.52L602.32-3.88Q603.28-2.76 604.60-2.18Q605.92-1.60 607.28-1.60L607.28-1.60L607.28 0L597.80 0L587.88-12.16Q586.88-13.36 586.14-13.78Q585.40-14.20 584.76-14.20L584.76-14.20L584.76-6.36Q584.76-4.88 584.96-3.94Q585.16-3 585.76-2.48Q586.36-1.96 587.50-1.78Q588.64-1.60 590.56-1.60L590.56-1.60L590.56 0L574.68 0L574.68-1.60Q576-1.60 576.82-1.78Q577.64-1.96 578.10-2.46Q578.56-2.96 578.72-3.86Q578.88-4.76 578.88-6.16L578.88-6.16L578.88-24.64Q578.88-26.04 578.76-26.90Q578.64-27.76 578.24-28.26Q577.84-28.76 577.10-28.94Q576.36-29.12 575.12-29.20L575.12-29.20L575.12-30.80L588.96-30.80Q594.76-30.80 597.92-28.76Q601.08-26.72 601.08-23.08ZM584.76-27.88L584.76-16.60L587.36-16.60Q591.12-16.60 592.98-18.06Q594.84-19.52 594.84-22.88L594.84-22.88Q594.84-25.44 593.28-27Q591.72-28.56 588.96-28.56L588.96-28.56L585.48-28.56Q584.76-28.56 584.76-27.88L584.76-27.88Z M610.64 0L610.04-10.20L611.60-10.20Q612.16-6.40 614.64-4.22Q617.12-2.04 620.76-2.04L620.76-2.04Q622.24-2.04 623.48-2.40Q624.72-2.76 625.60-3.42Q626.48-4.08 626.96-4.98Q627.44-5.88 627.44-7L627.44-7Q627.44-7.96 627.14-8.66Q626.84-9.36 626-10.02Q625.16-10.68 623.70-11.36Q622.24-12.04 619.92-12.92L619.92-12.92Q615.24-14.72 613-17.10Q610.76-19.48 610.76-22.72L610.76-22.72Q610.76-24.60 611.48-26.16Q612.20-27.72 613.50-28.84Q614.80-29.96 616.62-30.58Q618.44-31.20 620.64-31.20L620.64-31.20Q622.68-31.20 624.48-30.56Q626.28-29.92 628.04-28.64L628.04-28.64L628.76-30.64L629.72-30.64L630.16-22L628.60-22Q627.64-25.28 625.60-27.02Q623.56-28.76 620.88-28.76L620.88-28.76Q618.40-28.76 616.86-27.54Q615.32-26.32 615.32-24.40L615.32-24.40Q615.32-23.56 615.60-22.90Q615.88-22.24 616.64-21.64Q617.40-21.04 618.72-20.42Q620.04-19.80 622.12-19.04L622.12-19.04Q624.92-17.96 626.90-16.86Q628.88-15.76 630.14-14.50Q631.40-13.24 632-11.84Q632.60-10.44 632.60-8.76L632.60-8.76Q632.60-6.72 631.72-5.04Q630.84-3.36 629.26-2.16Q627.68-0.96 625.50-0.28Q623.32 0.40 620.68 0.40L620.68 0.40Q618.28 0.40 616.36-0.26Q614.44-0.92 612.40-2.40L612.40-2.40L611.60 0L610.64 0Z"/></g>
</svg>
</g><g opacity="1" transform="rotate(0 185.2255 -60.4878)">
<svg width="241.215" height="291.936" x="185.2255" y="-60.4878" version="1.1" preserveAspectRatio="none" viewBox="212.6669921875 177.4860076904297 574.6678466796875 695.5050048828125">
  <g transform="matrix(1 0 0 1 0 0)" class="icon1"><g><path d="M518,284.651l-10.444,61.416l54.304-8.673l21.306-63.151l94.173-15.042l1.013-7.339   c2.444-17.726-22.183-27.381-30.275-30.554c-13.227-5.187-28.963-8.841-28.963-8.841l-54.383,8.687l-63.685-43.668l-49.906,7.971   l40.645,47.349l-31.674,5.059l-36.095-27.316l-50.042,7.993l41.994,82.408L518,284.651z M546.771,319.55l-14.82,2.367l6.902-40.597   l22.001-3.514L546.771,319.55z M489.607,199.564l6.711-1.072l39.729,27.242l-21.083,3.368L489.607,199.564z M418.747,231.643   l36.094,27.315l163.508-26.117c3.389,0.854,11.019,2.893,19.031,5.805c4.848,1.763,8.61,3.393,11.522,4.842L427.18,278.904   l-22.906-44.95L418.747,231.643z"></path><path d="M251.371,658.598l-18.741,6.982c2.388,6.41,5.02,12.826,7.822,19.07l18.247-8.188   C256.074,670.612,253.608,664.602,251.371,658.598z"></path><path d="M232.667,554.324c0-3.173,0.051-6.394,0.15-9.572l-19.99-0.627c-0.106,3.386-0.16,6.817-0.16,10.199   c0,3.468,0.056,6.977,0.167,10.428l19.989-0.643C232.72,560.871,232.667,557.579,232.667,554.324z"></path><path d="M234.065,583.416l-19.907,1.924c0.66,6.827,1.551,13.712,2.647,20.464l19.741-3.207   C235.519,596.27,234.684,589.815,234.065,583.416z"></path><path d="M267.176,693.821l-17.677,9.355c3.199,6.045,6.642,12.069,10.231,17.904l17.034-10.48   C273.4,705.132,270.174,699.486,267.176,693.821z"></path><path d="M287.422,726.731L271.1,738.29c3.954,5.582,8.145,11.114,12.459,16.441l15.543-12.586   C295.058,737.151,291.128,731.965,287.422,726.731z"></path><path d="M258.635,432.328l-18.251-8.179c-2.807,6.263-5.442,12.7-7.833,19.131l18.746,6.969   C253.537,444.225,256.006,438.195,258.635,432.328z"></path><path d="M299.077,366.534l-15.544-12.585c-4.314,5.329-8.509,10.866-12.467,16.457l16.324,11.556   C291.101,376.72,295.033,371.529,299.077,366.534z"></path><path d="M276.724,398.115l-17.037-10.476c-3.594,5.845-7.041,11.881-10.244,17.939l17.681,9.349   C270.125,409.249,273.355,403.593,276.724,398.115z"></path><path d="M325.303,338.099l-13.8-14.477c-4.961,4.729-9.83,9.679-14.472,14.711l14.702,13.56   C316.085,347.174,320.651,342.533,325.303,338.099z"></path><path d="M245.153,468.586l-19.161-5.732c-1.962,6.561-3.735,13.275-5.268,19.959l19.494,4.471   C241.654,481.021,243.314,474.731,245.153,468.586z"></path><path d="M311.753,756.777l-14.7,13.562c4.646,5.035,9.515,9.984,14.473,14.709l13.798-14.479   C320.675,766.14,316.109,761.499,311.753,756.777z"></path><path d="M236.513,506.261l-19.744-3.191c-1.093,6.757-1.979,13.643-2.633,20.466l19.908,1.91   C234.658,519.049,235.488,512.595,236.513,506.261z"></path><path d="M240.267,621.574l-19.491,4.482c1.536,6.676,3.313,13.39,5.282,19.956l19.157-5.746   C243.37,634.116,241.705,627.827,240.267,621.574z"></path><path d="M434.885,858.131c6.529,2.072,13.214,3.955,19.871,5.597l4.79-19.418c-6.236-1.538-12.498-3.302-18.612-5.241   L434.885,858.131z"></path><path d="M354.949,313.279l-11.823-16.131c-5.52,4.046-10.983,8.328-16.237,12.727l12.839,15.335   C344.654,321.085,349.775,317.072,354.949,313.279z"></path><path d="M516.885,852.648l-0.951,19.977c5.102,0.243,10.282,0.366,15.4,0.366c1.745,0,3.487-0.014,5.226-0.042l-0.324-19.998   C529.82,853.056,523.301,852.953,516.885,852.648z"></path><path d="M474.945,868.016c6.732,1.203,13.604,2.202,20.424,2.968l2.232-19.875c-6.391-0.718-12.83-1.653-19.138-2.78   L474.945,868.016z"></path><path d="M326.918,798.8c5.256,4.398,10.724,8.683,16.25,12.732l11.821-16.133c-5.181-3.796-10.307-7.813-15.234-11.938   L326.918,798.8z"></path><path d="M387.525,292.493l-9.645-17.521c-5.991,3.298-11.958,6.839-17.735,10.525l10.758,16.86   C376.318,298.902,381.91,295.583,387.525,292.493z"></path><path d="M396.396,843.094c6.221,2.911,12.612,5.652,18.996,8.146l7.278-18.629c-5.98-2.337-11.968-4.904-17.797-7.633   L396.396,843.094z"></path><path d="M360.211,823.193c5.784,3.688,11.761,7.233,17.767,10.536l9.638-17.525c-5.627-3.095-11.229-6.417-16.65-9.874   L360.211,823.193z"></path><path d="M472.035,570.004c1.842,2.396,6.153,6.418,14.334,6.418c20.156,0,59.24-26.661,79.422-61.034   c10.027-17.08,17.639-17.08,21.296-17.08c4.036,0,8.686,1.094,13.608,2.253c6.087,1.432,12.985,3.056,20.521,3.055   c6.956-0.001,13.394-1.359,19.68-4.153c9.907-4.403,16.396-10.556,19.284-18.287c4.79-12.821-1.46-26.186-6.974-37.977   c-2.854-6.102-5.55-11.866-6.575-16.879c-2.367-11.573-10.243-25.369-34.319-25.369c-7.571,0-15.361,1.299-22.234,2.444   l-0.387,0.065c-1.315,0.219-2.485,0.33-3.479,0.33c-1.593,0-2.143-0.283-2.152-0.283c-1.05-1.003-1.853-6.299-2.333-9.463   c-0.169-1.114-0.34-2.239-0.527-3.364c-2.238-13.429-7.881-27.53-32.76-30.295c-1.263-0.14-2.531-0.211-3.771-0.211   c-16.659,0-28.382,11.672-49.663,32.862c-6.463,6.435-13.788,13.729-22.549,22.028c-16.607,15.733-22.795,28.945-18.917,40.39   c2.927,8.636,10.586,12.894,16.65,14.96c1.746,16.561,5.39,59.177-0.519,81.334C467.678,559.226,468.473,565.367,472.035,570.004z    M472.481,449.033c-0.017-0.049-0.964-5.528,13.73-19.449c8.942-8.472,16.361-15.858,22.906-22.375   c17.507-17.432,27.15-27.035,35.551-27.035c0.512,0,1.022,0.029,1.562,0.089c12.667,1.407,13.826,5.219,15.24,13.705   c0.172,1.029,0.327,2.058,0.482,3.076c1.418,9.347,4.058,26.746,24.259,26.746c2.093,0,4.369-0.203,6.767-0.603l0.389-0.064   c6.406-1.068,13.029-2.172,18.945-2.172c11.828,0,13.715,4.436,14.726,9.377c1.5,7.333,4.831,14.456,8.052,21.344   c4.035,8.627,8.207,17.549,6.355,22.504c-0.938,2.511-3.855,4.869-8.672,7.01c-3.728,1.657-7.4,2.429-11.558,2.429   c-5.214,0-10.423-1.226-15.938-2.523c-5.816-1.369-11.832-2.784-18.189-2.784c-15.499,0-27.747,8.564-38.544,26.953   c-16.051,27.34-46.19,47.875-59.329,50.802c8.056-31.781,0.372-92.43,0.038-95.018l-0.947-7.831l-7.859-0.827   C476.838,451.957,472.835,450.103,472.481,449.033z"></path><path d="M364.177,559.13l-2.671-2.443l-3.555-0.246c0,0-0.733-0.05-2.038-0.05c-19.913,0-43.081,9.45-48.385,35.973   c-6.386,31.927,7.361,44.531,32.316,67.413c3.369,3.09,6.854,6.284,10.65,9.843c5.59,5.241,9.854,9.531,13.281,12.979   c17.462,17.566,20.449,18.087,54.362,19.442c2.117,0.085,4.373,0.175,6.78,0.275c3.578,0.149,6.666,0.222,9.442,0.222   c11.998,0,20.398-1.241,25.202-7.421c4.751-6.111,2.973-13.095,1.545-18.705c-1.474-5.789-3.144-12.35-0.286-20.925   c2.564-7.692,2.162-14.473-1.194-20.151c-6.365-10.769-20.394-13.343-36.639-16.323c-14.166-2.599-30.222-5.545-39.844-14.144   c-3.457-3.09-5.07-5.047-5.802-6.104c0.029-0.046,0.059-0.09,0.086-0.133C385.396,586.376,381.804,575.67,364.177,559.13z    M419.378,638.684c7.968,1.462,21.306,3.909,23.03,6.827c0.083,0.141,0.245,1.232-0.562,3.651   c-4.715,14.145-1.84,25.437-0.123,32.184c0.07,0.276,0.146,0.571,0.222,0.873c-1.651,0.175-4.075,0.318-7.586,0.318   c-2.496,0-5.312-0.066-8.609-0.204c-2.419-0.101-4.686-0.191-6.814-0.276c-14.795-0.592-22.945-0.918-27.508-2.497   c-3.599-1.246-6.101-3.65-13.469-11.063c-3.537-3.558-7.939-7.986-13.787-13.468c-3.877-3.636-7.562-7.014-10.812-9.994   c-25.087-23.002-30.257-28.574-26.222-48.75c3.225-16.123,17.846-19.332,26.195-19.819c6.128,6.139,7.645,9.186,8.01,10.184   c-0.19,0.32-0.464,0.742-0.685,1.081c-6.971,10.722-4.318,20.008,9.157,32.05C383.628,632.124,403.451,635.762,419.378,638.684z"></path><path d="M712.354,373.305c-32.782-32.782-72.895-55.563-116.637-66.846l-7.322,18.855c55.738,13.892,103.696,47.655,135.896,93.293   c-2.069,11.843-8.511,46.755-16.443,70.555c-5.955,17.862-20.941,22.08-34.164,25.802c-4.694,1.321-9.129,2.569-12.821,4.416   c-16.512,8.256-54.376,30.686-49.393,60.588c1.419,8.51,5.159,14.226,11.117,16.99c10.898,5.057,23.299-2.329,37.658-10.878   c6.266-3.73,12.745-7.587,19.251-10.565c0.091-0.042,10.172-2.384,38.377,35.191c12.388,16.502,23.183,34.027,27.948,42.005   c-4.267,9.264-9.118,18.203-14.503,26.776l-38.953-19.951c-3.522-2.024-26.238-14.875-38.755-17.063   c-8.03-1.406-18.229,2.082-34.213,7.886c-10.283,3.733-21.938,7.965-28.063,7.965c-10.835,0-21.442,4.094-30.676,11.838   c-9.771,8.194-17.422,19.902-22.741,34.799c-6.986,19.562-8.377,19.948-31.595,26.413c-3.479,0.968-7.42,2.065-11.81,3.356   c-24.759,7.282-36.008,27.06-40.112,42.707c-92.471-31.976-159.066-119.908-159.066-223.113c0-25.687,4.127-50.426,11.75-73.592   c10.268,5.341,25.885,12.084,39.308,12.084c2.46,0,4.846-0.227,7.112-0.73c14.549-3.233,62.68-15.546,71.194-38.25   c3.48-9.281,4.558-21.667,5.599-33.645c0.925-10.637,1.881-21.636,4.401-28.355c4.104-10.943,17.916-23.712,22.884-27.703   l3.753-3.002v-32.182c10.268-3.195,20.832-5.715,31.643-7.49l2.857-20.689c-54.916,7.572-105.64,32.656-145.52,72.536   c-48.352,48.352-74.98,112.64-74.98,181.02s26.628,132.667,74.98,181.02c48.352,48.352,112.639,74.98,181.02,74.98   c68.381,0,132.667-26.629,181.02-74.98c48.352-48.353,74.98-112.64,74.98-181.02S760.705,421.657,712.354,373.305z    M441.334,336.188v15.51c-6.707,5.941-20.083,19.033-25.363,33.115c-3.48,9.281-4.558,21.667-5.599,33.645   c-0.925,10.637-1.881,21.636-4.401,28.355c-2.911,7.762-28.925,19.554-56.806,25.75c-7.834,1.738-23.201-4.331-34.964-10.681   C338.443,405.164,384.289,359.807,441.334,336.188z M733.969,598.832c-26.757-35.679-46.715-48.866-62.797-41.503   c-7.486,3.428-14.749,7.751-21.157,11.565c-5.858,3.488-14.376,8.559-18.434,9.537c-0.125-0.435-0.26-1.009-0.383-1.751   c-2.283-13.7,19.371-29.794,38.607-39.412c1.995-0.997,5.542-1.996,9.296-3.053c14.367-4.043,38.413-10.812,47.72-38.729   c5.291-15.873,9.852-35.835,13.048-51.571c17.525,32.962,27.465,70.544,27.465,110.409c0,26.286-4.324,51.58-12.291,75.213   C749.452,620.728,742.094,609.666,733.969,598.832z M531.334,790.324c-19.908,0-39.245-2.489-57.725-7.152   c2.196-9.183,8.499-23.946,26.547-29.254c4.25-1.25,8.118-2.327,11.53-3.277c26.28-7.316,35.07-10.966,45.065-38.953   c8.786-24.599,23.625-33.363,34.583-33.363c9.644,0,22.478-4.659,34.889-9.166c8.136-2.953,20.428-7.413,23.944-6.983   c7.051,1.232,23.629,9.738,32.423,14.811l37.292,19.111C676.774,753.283,608.301,790.324,531.334,790.324z"></path></g></g>
</svg>
</g></svg></svg>